<svg xmlns="http://www.w3.org/2000/svg" xmlns:xlink="http://www.w3.org/1999/xlink" version="1.1" x="0px" y="0px" viewBox="0 0 60 75" enable-background="new 0 0 60 60" xml:space="preserve"><path d="M41,6H19C11.83,6,6,11.83,6,19v22c0,7.17,5.83,13,13,13h22c7.17,0,13-5.83,13-13V19C54,11.83,48.17,6,41,6z M26,33  c0,3.31-2.69,6-6,6s-6-2.69-6-6v-6c0-3.31,2.69-6,6-6c0.81,0,1.6,0.16,2.34,0.47c0.5,0.22,0.74,0.81,0.53,1.32  c-0.22,0.51-0.81,0.74-1.31,0.53C21.06,23.11,20.54,23,20,23c-2.21,0-4,1.8-4,4v6c0,2.21,1.79,4,4,4s4-1.79,4-4v-2h-3  c-0.55,0-1-0.45-1-1s0.45-1,1-1h4c0.55,0,1,0.45,1,1V33z M32,38c0,0.55-0.45,1-1,1s-1-0.45-1-1V22c0-0.55,0.45-1,1-1s1,0.45,1,1V38z   M46,28c0.55,0,1,0.45,1,1s-0.45,1-1,1h-7v8c0,0.55-0.45,1-1,1s-1-0.45-1-1V22c0-0.55,0.45-1,1-1h8c0.55,0,1,0.45,1,1s-0.45,1-1,1  h-7v5H46z"/></svg>